<svg width="48" height="48" viewBox="0 0 48 48" fill="none" xmlns="http://www.w3.org/2000/svg">
<g filter="url(#filter0_d_123_70)">
<path d="M4 7C4 4.79086 5.79086 3 8 3H40C42.2091 3 44 4.79086 44 7V39C44 41.2091 42.2091 43 40 43H8C5.79086 43 4 41.2091 4 39V7Z" fill="#3B4249" shape-rendering="crispEdges"/>
<g filter="url(#filter1_d_123_70)">
<path d="M27.7173 27.7222C25.6081 27.5627 24.0032 27.5627 24.0032 27.5627C24.0032 27.5627 22.3982 27.5627 20.2891 27.7222C18.1799 27.8817 16.5749 28.3158 16.5749 28.3158L16.768 30.2H31.2383L31.4314 28.3158C31.4314 28.3158 29.8264 27.8846 27.7173 27.7222Z" fill="#FFBC39"/>
<path d="M34.5604 20.3894C34.1311 19.654 33.2581 19.3941 32.5089 19.7426C32.0162 19.97 31.7021 20.3746 31.6013 20.9328C31.5321 21.3167 31.5811 21.6829 31.7569 22.0344C31.777 22.0727 31.7626 22.1732 31.7338 22.1909C31.3823 22.4035 31.0394 22.6457 30.6619 22.8081C29.9243 23.1241 29.1492 23.2186 28.3511 23.1005C27.7488 23.0148 27.1899 22.8199 26.6654 22.5098C25.8443 22.0225 25.2334 21.3315 24.8214 20.4573C24.637 20.0675 24.5188 19.654 24.4381 19.2287C24.4208 19.1401 24.3978 19.0545 24.5303 19.0072C25.3631 18.7149 25.8154 17.823 25.5331 16.934C25.3285 16.2873 24.8646 15.9034 24.1903 15.8118C24.1269 15.8029 24.0636 15.8 24.0002 15.8C23.9368 15.8 23.8734 15.8059 23.81 15.8118C23.1357 15.9034 22.6747 16.2873 22.4673 16.934C22.1849 17.8259 22.6373 18.7149 23.47 19.0072C23.6025 19.0545 23.5766 19.1401 23.5622 19.2287C23.4844 19.654 23.3634 20.0675 23.179 20.4573C22.7669 21.3315 22.1561 22.0225 21.3349 22.5098C20.8134 22.8199 20.2515 23.0148 19.6493 23.1005C18.8511 23.2157 18.076 23.1212 17.3384 22.8081C16.9638 22.6486 16.6209 22.4065 16.2665 22.1909C16.2377 22.1732 16.2233 22.0727 16.2435 22.0344C16.4221 21.6859 16.4682 21.3197 16.3991 20.9328C16.2982 20.3746 15.9842 19.97 15.4914 19.7426C14.7394 19.3941 13.8663 19.654 13.4399 20.3894C13.0106 21.1247 13.169 22.0255 13.8231 22.5541C14.238 22.8879 14.7048 22.9883 15.2148 22.8495C15.3041 22.8258 15.3416 22.8376 15.3733 22.9262C15.5404 23.4253 15.7248 23.9185 15.8718 24.4265C15.9986 24.8665 16.0936 25.3184 16.183 25.7702C16.2809 26.2664 16.4538 27.3503 16.4538 27.3503C16.4538 27.3503 18.272 27.0047 20.1391 26.8098C22.0062 26.6149 23.9973 26.6119 23.9973 26.6119C23.9973 26.6119 25.9854 26.6149 27.8555 26.8098C29.7226 27.0047 31.5407 27.3503 31.5407 27.3503C31.5407 27.3503 31.7165 26.2634 31.8116 25.7702C31.9009 25.3184 31.996 24.8665 32.1228 24.4265C32.2697 23.9215 32.457 23.4283 32.6213 22.9262C32.6501 22.8376 32.6904 22.8229 32.7797 22.8495C33.2897 22.9883 33.7565 22.8908 34.1715 22.5541C34.8313 22.0255 34.9898 21.1247 34.5604 20.3894Z" fill="#FFBC39"/>
</g>
</g>
<defs>
<filter id="filter0_d_123_70" x="0" y="0" width="48" height="48" filterUnits="userSpaceOnUse" color-interpolation-filters="sRGB">
<feFlood flood-opacity="0" result="BackgroundImageFix"/>
<feColorMatrix in="SourceAlpha" type="matrix" values="0 0 0 0 0 0 0 0 0 0 0 0 0 0 0 0 0 0 127 0" result="hardAlpha"/>
<feOffset dy="1"/>
<feGaussianBlur stdDeviation="2"/>
<feComposite in2="hardAlpha" operator="out"/>
<feColorMatrix type="matrix" values="0 0 0 0 0 0 0 0 0 0 0 0 0 0 0 0 0 0 0.25 0"/>
<feBlend mode="normal" in2="BackgroundImageFix" result="effect1_dropShadow_123_70"/>
<feBlend mode="normal" in="SourceGraphic" in2="effect1_dropShadow_123_70" result="shape"/>
</filter>
<filter id="filter1_d_123_70" x="9.20001" y="12.8" width="29.6" height="22.4" filterUnits="userSpaceOnUse" color-interpolation-filters="sRGB">
<feFlood flood-opacity="0" result="BackgroundImageFix"/>
<feColorMatrix in="SourceAlpha" type="matrix" values="0 0 0 0 0 0 0 0 0 0 0 0 0 0 0 0 0 0 127 0" result="hardAlpha"/>
<feOffset dy="1"/>
<feGaussianBlur stdDeviation="2"/>
<feComposite in2="hardAlpha" operator="out"/>
<feColorMatrix type="matrix" values="0 0 0 0 0 0 0 0 0 0 0 0 0 0 0 0 0 0 0.5 0"/>
<feBlend mode="normal" in2="BackgroundImageFix" result="effect1_dropShadow_123_70"/>
<feBlend mode="normal" in="SourceGraphic" in2="effect1_dropShadow_123_70" result="shape"/>
</filter>
</defs>
</svg>
