<?xml version="1.0" encoding="utf-8"?>
<!-- Generator: Adobe Illustrator 25.2.1, SVG Export Plug-In . SVG Version: 6.00 Build 0)  -->
<svg version="1.1" id="Livello_1" xmlns="http://www.w3.org/2000/svg" xmlns:xlink="http://www.w3.org/1999/xlink" x="0px" y="0px"
	 viewBox="0 0 40 40" style="enable-background:new 0 0 40 40;" xml:space="preserve">
<style type="text/css">
	.st0{fill:#3B4249;}
	.st1{fill:#FFBC39;}
</style>
<g>
	<path shape-rendering="crispEdges" class="st0" d="M0,4c0-2.2,1.8-4,4-4h32c2.2,0,4,1.8,4,4v32c0,2.2-1.8,4-4,4H4c-2.2,0-4-1.8-4-4
		V4z"/>
	<g>
		<path class="st1" d="M23.7,24.7c-2.1-0.2-3.7-0.2-3.7-0.2s-1.6,0-3.7,0.2c-2.1,0.2-3.7,0.6-3.7,0.6l0.2,1.9h14.5l0.2-1.9
			C27.4,25.3,25.8,24.9,23.7,24.7z"/>
		<path class="st1" d="M30.6,17.4c-0.4-0.7-1.3-1-2.1-0.6c-0.5,0.2-0.8,0.6-0.9,1.2c-0.1,0.4,0,0.8,0.2,1.1c0,0,0,0.1,0,0.2
			c-0.4,0.2-0.7,0.5-1.1,0.6c-0.7,0.3-1.5,0.4-2.3,0.3c-0.6-0.1-1.2-0.3-1.7-0.6c-0.8-0.5-1.4-1.2-1.8-2.1c-0.2-0.4-0.3-0.8-0.4-1.2
			c0-0.1,0-0.2,0.1-0.2c0.8-0.3,1.3-1.2,1-2.1c-0.2-0.6-0.7-1-1.3-1.1c-0.1,0-0.1,0-0.2,0s-0.1,0-0.2,0c-0.7,0.1-1.1,0.5-1.3,1.1
			c-0.3,0.9,0.2,1.8,1,2.1c0.1,0,0.1,0.1,0.1,0.2c-0.1,0.4-0.2,0.8-0.4,1.2c-0.4,0.9-1,1.6-1.8,2.1c-0.5,0.3-1.1,0.5-1.7,0.6
			c-0.8,0.1-1.6,0-2.3-0.3c-0.4-0.2-0.7-0.4-1.1-0.6c0,0,0-0.1,0-0.2c0.2-0.3,0.2-0.7,0.2-1.1c-0.1-0.6-0.4-1-0.9-1.2
			c-0.8-0.3-1.6-0.1-2.1,0.6C9,18.1,9.2,19,9.8,19.6c0.4,0.3,0.9,0.4,1.4,0.3c0.1,0,0.1,0,0.2,0.1c0.2,0.5,0.4,1,0.5,1.5
			c0.1,0.4,0.2,0.9,0.3,1.3c0.1,0.5,0.3,1.6,0.3,1.6s1.8-0.3,3.7-0.5c1.9-0.2,3.9-0.2,3.9-0.2s2,0,3.9,0.2c1.9,0.2,3.7,0.5,3.7,0.5
			s0.2-1.1,0.3-1.6c0.1-0.5,0.2-0.9,0.3-1.3c0.1-0.5,0.3-1,0.5-1.5c0-0.1,0.1-0.1,0.2-0.1c0.5,0.1,1,0,1.4-0.3
			C30.8,19,31,18.1,30.6,17.4z"/>
	</g>
</g>
</svg>
