<svg width="133" height="25" viewBox="0 0 133 25" fill="none" xmlns="http://www.w3.org/2000/svg">
<path d="M38.5856 15.664C38.5856 17.3707 38.2121 18.8853 37.4652 20.208C36.7183 21.5093 35.7047 22.5333 34.4243 23.28C33.1438 24.0267 31.7034 24.4 30.1028 24.4C28.5023 24.4 27.0619 24.0267 25.7815 23.28C24.501 22.5333 23.4767 21.5093 22.7085 20.208C21.9615 18.8853 21.5881 17.3707 21.5881 15.664C21.5881 13.936 21.9615 12.4213 22.7085 11.12C23.4767 9.79733 24.501 8.76266 25.7815 8.01599C27.0619 7.24799 28.5023 6.86399 30.1028 6.86399C31.7034 6.86399 33.1438 7.24799 34.4243 8.01599C35.7047 8.76266 36.7183 9.79733 37.4652 11.12C38.2121 12.4213 38.5856 13.936 38.5856 15.664ZM35.3846 15.664C35.3846 14.4907 35.1498 13.4773 34.6803 12.624C34.2108 11.7493 33.5706 11.0667 32.7597 10.576C31.9701 10.064 31.0845 9.80799 30.1028 9.80799C29.1212 9.80799 28.2249 10.064 27.414 10.576C26.6031 11.0667 25.9628 11.7493 25.4934 12.624C25.0239 13.4773 24.7891 14.4907 24.7891 15.664C24.7891 16.7947 25.0239 17.7973 25.4934 18.672C25.9628 19.5467 26.6031 20.2293 27.414 20.72C28.2249 21.2107 29.1212 21.456 30.1028 21.456C31.0845 21.456 31.9701 21.2107 32.7597 20.72C33.5706 20.2293 34.2108 19.5467 34.6803 18.672C35.1498 17.7973 35.3846 16.7947 35.3846 15.664Z" fill="#3B4249"/>
<path d="M59.3023 15.664C59.3023 17.3707 58.9288 18.8853 58.1819 20.208C57.435 21.5093 56.4214 22.5333 55.141 23.28C53.8605 24.0267 52.4201 24.4 50.8196 24.4C49.219 24.4 47.7786 24.0267 46.4982 23.28C45.2177 22.5333 44.1934 21.5093 43.4252 20.208C42.6783 18.8853 42.3048 17.3707 42.3048 15.664C42.3048 13.936 42.6783 12.4213 43.4252 11.12C44.1934 9.79733 45.2177 8.76266 46.4982 8.01599C47.7786 7.24799 49.219 6.86399 50.8196 6.86399C52.4201 6.86399 53.8605 7.24799 55.141 8.01599C56.4214 8.76266 57.435 9.79733 58.1819 11.12C58.9288 12.4213 59.3023 13.936 59.3023 15.664ZM56.1013 15.664C56.1013 14.4907 55.8665 13.4773 55.397 12.624C54.9276 11.7493 54.2874 11.0667 53.4764 10.576C52.6868 10.064 51.8012 9.80799 50.8196 9.80799C49.8379 9.80799 48.9416 10.064 48.1307 10.576C47.3198 11.0667 46.6796 11.7493 46.2101 12.624C45.7406 13.4773 45.5058 14.4907 45.5058 15.664C45.5058 16.7947 45.7406 17.7973 46.2101 18.672C46.6796 19.5467 47.3198 20.2293 48.1307 20.72C48.9416 21.2107 49.8379 21.456 50.8196 21.456C51.8012 21.456 52.6868 21.2107 53.4764 20.72C54.2874 20.2293 54.9276 19.5467 55.397 18.672C55.8665 17.7973 56.1013 16.7947 56.1013 15.664Z" fill="#3B4249"/>
<path d="M67.3429 22.448C67.3429 22.9173 67.1829 23.312 66.8628 23.632C66.564 23.9307 66.1905 24.08 65.7424 24.08C65.2942 24.08 64.9101 23.9307 64.59 23.632C64.2913 23.312 64.1419 22.9173 64.1419 22.448V2.03199C64.1419 1.56266 64.3019 1.17866 64.622 0.879993C64.9421 0.559994 65.3263 0.399994 65.7744 0.399994C66.2439 0.399994 66.6173 0.559994 66.8948 0.879993C67.1935 1.17866 67.3429 1.56266 67.3429 2.03199V22.448Z" fill="#3B4249"/>
<path fill-rule="evenodd" clip-rule="evenodd" d="M87.6963 3.11999C86.6933 2.15999 85.2101 1.67999 83.2468 1.67999H75.0522C74.604 1.67999 74.2199 1.83999 73.8998 2.15999C73.5797 2.45866 73.4196 2.84266 73.4196 3.31199V22.448C73.4196 22.9173 73.5797 23.312 73.8998 23.632C74.2199 23.9307 74.604 24.08 75.0522 24.08H83.2468C84.0577 24.08 84.8793 23.984 85.7116 23.792C86.5652 23.5787 87.3441 23.2267 88.0484 22.736C88.7526 22.2453 89.3181 21.5733 89.7449 20.72C90.1717 19.8453 90.3851 18.7573 90.3851 17.456C90.3851 16.2613 90.1504 15.2693 89.6809 14.48C89.2114 13.6693 88.6139 13.0293 87.8883 12.56C87.4139 12.2531 86.9166 12.0055 86.3966 11.8172C86.4354 11.7985 86.4739 11.7795 86.5119 11.76C87.4082 11.312 88.0804 10.704 88.5285 9.93599C88.998 9.14666 89.2327 8.27199 89.2327 7.31199C89.2327 5.47733 88.7206 4.07999 87.6963 3.11999ZM86.3966 11.8172L86.3909 11.8152C86.1174 11.7164 85.8377 11.634 85.5516 11.568C84.7406 11.376 83.9831 11.28 83.2788 11.28L83.2148 12.464C84.4804 12.4436 85.541 12.228 86.3966 11.8172ZM76.8767 4.81599H82.7987C83.7163 4.81599 84.4419 5.07199 84.9754 5.58399C85.5089 6.07466 85.7756 6.82133 85.7756 7.82399C85.7756 8.80533 85.4769 9.55199 84.8793 10.064C84.3032 10.5547 83.6309 10.8107 82.8627 10.832H76.8767V4.81599ZM76.8767 13.968H83.0227C83.6203 13.968 84.2178 14.0533 84.8153 14.224C85.4128 14.3947 85.9143 14.7253 86.3198 15.216C86.7253 15.7067 86.928 16.4533 86.928 17.456C86.928 18.6507 86.5866 19.5467 85.9037 20.144C85.2208 20.72 84.3245 21.008 83.2148 21.008H76.8767V13.968Z" fill="#F15E75"/>
<path d="M83.2788 11.28L83.2148 12.464C84.4804 12.4436 85.541 12.228 86.3966 11.8172L86.3909 11.8152C86.1174 11.7164 85.8377 11.634 85.5516 11.568C84.7406 11.376 83.9831 11.28 83.2788 11.28Z" fill="#F15E75"/>
<path fill-rule="evenodd" clip-rule="evenodd" d="M107.168 7.82399C106.336 7.18399 105.162 6.86399 103.647 6.86399C102.9 6.86399 102.196 6.99199 101.534 7.24799C100.873 7.48266 100.275 7.81333 99.7417 8.23999C99.2081 8.64533 98.7493 9.09333 98.3652 9.58399C98.2975 9.67163 98.2334 9.75927 98.1731 9.84691V8.87999C98.1731 8.41066 98.0131 8.02666 97.693 7.72799C97.3942 7.40799 97.0208 7.24799 96.5726 7.24799C96.1031 7.24799 95.719 7.40799 95.4202 7.72799C95.1215 8.02666 94.9721 8.41066 94.9721 8.87999V22.448C94.9721 22.9173 95.1215 23.312 95.4202 23.632C95.719 23.9307 96.1031 24.08 96.5726 24.08C97.0208 24.08 97.3942 23.9307 97.693 23.632C98.0131 23.312 98.1731 22.9173 98.1731 22.448V13.904C98.1731 13.136 98.3545 12.4533 98.7173 11.856C99.1014 11.2373 99.6243 10.7467 100.286 10.384C100.947 9.99999 101.716 9.80799 102.591 9.80799C103.53 9.80799 104.255 9.99999 104.767 10.384C105.301 10.7467 105.674 11.2373 105.888 11.856C106.101 12.4533 106.208 13.136 106.208 13.904V22.448C106.208 22.9173 106.357 23.312 106.656 23.632C106.955 23.9307 107.339 24.08 107.808 24.08C108.256 24.08 108.63 23.9307 108.929 23.632C109.249 23.312 109.409 22.9173 109.409 22.448V13.872C109.409 12.5707 109.238 11.3973 108.897 10.352C108.577 9.28533 108 8.44266 107.168 7.82399ZM98.1731 10.672L98.1724 9.84799C97.9101 10.2293 97.7183 10.6107 97.597 10.992L98.1731 10.672Z" fill="#3B4249"/>
<path d="M97.597 10.992L98.1731 10.672L98.1724 9.84799C97.9101 10.2293 97.7183 10.6107 97.597 10.992Z" fill="#3B4249"/>
<path fill-rule="evenodd" clip-rule="evenodd" d="M129.442 3.11999C128.439 2.15999 126.956 1.67999 124.993 1.67999H116.798C116.35 1.67999 115.966 1.83999 115.646 2.15999C115.326 2.45866 115.166 2.84266 115.166 3.31199V22.448C115.166 22.9173 115.326 23.312 115.646 23.632C115.966 23.9307 116.35 24.08 116.798 24.08H124.993C125.804 24.08 126.625 23.984 127.458 23.792C128.311 23.5787 129.09 23.2267 129.794 22.736C130.499 22.2453 131.064 21.5733 131.491 20.72C131.918 19.8453 132.131 18.7573 132.131 17.456C132.131 16.2613 131.896 15.2693 131.427 14.48C130.957 13.6693 130.36 13.0293 129.634 12.56C129.16 12.2531 128.663 12.0055 128.143 11.8172C128.181 11.7985 128.22 11.7795 128.258 11.76C129.154 11.312 129.826 10.704 130.275 9.93599C130.744 9.14666 130.979 8.27199 130.979 7.31199C130.979 5.47733 130.467 4.07999 129.442 3.11999ZM128.143 11.8172L128.137 11.8152C127.863 11.7164 127.584 11.634 127.298 11.568C126.487 11.376 125.729 11.28 125.025 11.28L124.961 12.464C126.226 12.4436 127.287 12.228 128.143 11.8172ZM118.623 4.81599H124.545C125.462 4.81599 126.188 5.07199 126.721 5.58399C127.255 6.07466 127.522 6.82133 127.522 7.82399C127.522 8.80533 127.223 9.55199 126.625 10.064C126.049 10.5547 125.377 10.8107 124.609 10.832H118.623V4.81599ZM118.623 13.968H124.769C125.366 13.968 125.964 14.0533 126.561 14.224C127.159 14.3947 127.66 14.7253 128.066 15.216C128.471 15.7067 128.674 16.4533 128.674 17.456C128.674 18.6507 128.333 19.5467 127.65 20.144C126.967 20.72 126.071 21.008 124.961 21.008H118.623V13.968Z" fill="#F15E75"/>
<path d="M125.025 11.28L124.961 12.464C126.226 12.4436 127.287 12.228 128.143 11.8172L128.137 11.8152C127.863 11.7164 127.584 11.634 127.298 11.568C126.487 11.376 125.729 11.28 125.025 11.28Z" fill="#F15E75"/>
<path fill-rule="evenodd" clip-rule="evenodd" d="M15.2078 3.11999C14.2048 2.15999 12.7216 1.67999 10.7583 1.67999H2.56368C2.11554 1.67999 1.73141 1.83999 1.41131 2.15999C1.0912 2.45866 0.931152 2.84266 0.931152 3.31199V22.448C0.931152 22.9173 1.0912 23.312 1.41131 23.632C1.73141 23.9307 2.11554 24.08 2.56368 24.08H10.7583C11.5693 24.08 12.3909 23.984 13.2231 23.792C14.0767 23.5787 14.8557 23.2267 15.5599 22.736C16.2641 22.2453 16.8296 21.5733 17.2564 20.72C17.6832 19.8453 17.8966 18.7573 17.8966 17.456C17.8966 16.2613 17.6619 15.2693 17.1924 14.48C16.7229 13.6693 16.1254 13.0293 15.3998 12.56C14.9254 12.2531 14.4281 12.0055 13.9081 11.8172C13.9469 11.7985 13.9854 11.7795 14.0234 11.76C14.9197 11.312 15.5919 10.704 16.04 9.93599C16.5095 9.14666 16.7443 8.27199 16.7443 7.31199C16.7443 5.47733 16.2321 4.07999 15.2078 3.11999ZM13.9081 11.8172L13.9024 11.8152C13.629 11.7164 13.3492 11.634 13.0631 11.568C12.2522 11.376 11.4946 11.28 10.7903 11.28L10.7263 12.464C11.9919 12.4436 13.0525 12.228 13.9081 11.8172ZM4.38827 4.81599H10.3102C11.2278 4.81599 11.9534 5.07199 12.4869 5.58399C13.0204 6.07466 13.2872 6.82133 13.2872 7.82399C13.2872 8.80533 12.9884 9.55199 12.3909 10.064C11.8147 10.5547 11.1425 10.8107 10.3742 10.832H4.38827V4.81599ZM4.38827 13.968H10.5343C11.1318 13.968 11.7293 14.0533 12.3268 14.224C12.9244 14.3947 13.4259 14.7253 13.8313 15.216C14.2368 15.7067 14.4395 16.4533 14.4395 17.456C14.4395 18.6507 14.0981 19.5467 13.4152 20.144C12.7323 20.72 11.836 21.008 10.7263 21.008H4.38827V13.968Z" fill="#3B4249"/>
<path d="M10.7903 11.28L10.7263 12.464C11.9919 12.4436 13.0525 12.228 13.9081 11.8172L13.9024 11.8152C13.629 11.7164 13.3492 11.634 13.0631 11.568C12.2522 11.376 11.4946 11.28 10.7903 11.28Z" fill="#3B4249"/>
</svg>
