<?xml version="1.0" encoding="utf-8"?>
<!-- Generator: Adobe Illustrator 25.2.1, SVG Export Plug-In . SVG Version: 6.00 Build 0)  -->
<svg version="1.1" id="Livello_1" xmlns="http://www.w3.org/2000/svg" xmlns:xlink="http://www.w3.org/1999/xlink" x="0px" y="0px"
	 viewBox="0 0 275.1 24" style="enable-background:new 0 0 275.1 24;" xml:space="preserve">
<style type="text/css">
	.st0{fill:#FFFFFF;}
	.st1{fill:#1F72CD;}
	.st2{fill-rule:evenodd;clip-rule:evenodd;fill:#FFFFFF;}
	.st3{fill-rule:evenodd;clip-rule:evenodd;fill:#172B85;}
	.st4{fill-rule:evenodd;clip-rule:evenodd;fill:#F9A000;}
	.st5{fill:#FF5E00;}
	.st6{fill-rule:evenodd;clip-rule:evenodd;fill:#ED0006;}
	.st7{fill:#ED0006;}
	.st8{fill:#0099DF;}
	.st9{fill-rule:evenodd;clip-rule:evenodd;fill:#6C6BBD;}
</style>
<path class="st0" d="M0,16.2c0.4,0,0.8,0,1.2,0c0-2.5,0-5,0-7.5c-0.4,0-0.8,0-1.2,0c0-0.5,0-1,0-1.6c1.3,0,2.6,0,3.9,0
	c0.9,0,1.8,0,2.6,0.2c2,0.4,2.9,2.6,1.7,4.1c-0.2,0.3-0.6,0.6-0.9,0.8c0.3,0.2,0.7,0.4,1.1,0.6c1.3,1,1.2,3.1-0.2,4.1
	c-0.7,0.5-1.5,0.7-2.2,0.7c-2,0-3.9,0-5.9,0C0,17.2,0,16.7,0,16.2z M3,16.1c1.1,0,2.1,0,3.1,0c0.5,0,1-0.3,1.2-0.7
	c0.5-0.9,0.1-1.9-1-2.1C5.3,13.1,4.1,13.1,3,13C3,14.1,3,15.1,3,16.1z M3,11.6c1-0.1,2-0.1,2.9-0.2c0.7-0.1,1-0.6,1.1-1.3
	c0-0.6-0.3-1.2-1-1.3C5,8.7,4,8.6,3,8.6C3,9.6,3,10.6,3,11.6z"/>
<path class="st0" d="M47.4,16.1c0.4,0,0.8,0,1.2,0c0-1.3,0.1-2.5,0-3.7c-0.1-0.8-0.7-1.2-1.6-1.2c-1.4,0-2.4,1.1-2.4,2.4
	c0,0.8,0,1.6,0,2.5c0.4,0,0.8,0,1.2,0c0,0.5,0,1,0,1.6c-1.4,0-2.7,0-4.1,0c0-0.5,0-1,0-1.5c0.4,0,0.8,0,1.2,0c0-1.6,0-3.1,0-4.7
	c-0.3,0-0.7,0-1.1,0c0-0.5,0-1,0-1.5c0.9,0,1.8,0,2.7,0c0,0.3,0,0.5,0,0.9c0.6-0.7,1.3-1,2.1-1.1c1.9-0.3,3.7,0.8,3.6,3
	c0,1.1,0,2.3,0,3.5c0.4,0,0.8,0,1.2,0c0,0.5,0,1,0,1.6c-1.3,0-2.7,0-4.1,0C47.4,17.2,47.4,16.7,47.4,16.1z"/>
<path class="st0" d="M84.3,14.4c0.3,2.2,3.5,2.8,5.5,1.1c0.4,0.3,0.7,0.7,1.1,1c-0.8,0.8-1.7,1.2-2.7,1.3c-1.5,0.3-3,0.2-4.3-0.8
	c-1.5-1.1-1.8-2.6-1.4-4.3c0.4-1.7,1.6-2.7,3.3-3c3.1-0.6,5.3,1.8,5.1,4.6C88.8,14.4,86.6,14.4,84.3,14.4z M89.1,13
	c-0.1-1-1.2-1.9-2.3-1.9c-1.4,0-2.4,1-2.4,1.9C86,13,87.5,13,89.1,13z"/>
<path class="st0" d="M74,14.4c0.2,1,0.8,1.5,1.6,1.9c1.2,0.5,2.7,0.1,4-0.9c0.3,0.4,0.7,0.7,1.1,1.1c-0.8,0.7-1.7,1.1-2.7,1.3
	c-1.5,0.3-3,0.1-4.3-0.9c-1.5-1.2-1.8-2.7-1.3-4.4c0.4-1.6,1.6-2.6,3.3-2.9c2.9-0.5,5.1,1.4,5.1,4.3c0,0.4-0.2,0.4-0.4,0.4
	c-1.9,0-3.9,0-5.9,0C74.4,14.4,74.2,14.4,74,14.4z M78.9,13c-0.2-1.3-1.5-1.9-2.4-1.9c-1.2,0-2.3,0.9-2.4,1.9
	C75.7,13,77.3,13,78.9,13z"/>
<path class="st0" d="M26.8,17c-1,0.9-2.2,1.1-3.4,0.9c-1.4-0.2-2.2-1-2.3-2.2c-0.1-1.1,0.6-2.1,1.9-2.5c1.1-0.4,2.1-0.4,3.2-0.1
	c0.2,0.1,0.4,0.1,0.6,0.1c0.3-1-0.4-1.8-1.5-1.9c-0.8-0.1-1.6,0.1-2.3,0.6c-0.1,0.1-0.2,0.2-0.4,0.3c-0.3-0.4-0.7-0.7-1.1-1.1
	c1.2-1.1,2.5-1.5,4.1-1.3c1.1,0.1,2,0.6,2.5,1.6c0.2,0.4,0.3,0.8,0.3,1.3c0,1,0,2,0,3.1c0,0.2,0,0.3,0,0.5c0.4,0,0.8,0,1.1,0
	c0,0.5,0,1,0,1.6c-0.9,0-1.9,0-2.8,0C26.8,17.5,26.8,17.3,26.8,17z M24.7,14.2c-0.4,0.1-0.9,0.2-1.4,0.4c-0.4,0.2-0.6,0.6-0.5,1
	c0.1,0.4,0.3,0.7,0.8,0.8c1,0.2,1.8,0.1,2.6-0.5c0.3-0.2,0.5-0.6,0.6-1c0.1-0.3,0-0.5-0.3-0.5C25.9,14.4,25.3,14.3,24.7,14.2z"/>
<path class="st0" d="M53.7,11.5c-0.7,0-1.4,0-2,0c0-0.5,0-1,0-1.6c0.7,0,1.3,0,2,0c0-1,0-1.9,0-2.8c0.6,0,1.1,0,1.6,0
	c0,0.9,0,1.8,0,2.8c1.3,0,2.6,0,3.8,0c0,0.5,0,1,0,1.6c-1.3,0-2.5,0-3.8,0c0,0.2,0,0.3,0,0.4c0,0.9,0,1.7,0,2.6
	c-0.1,1.6,1.1,2.2,2.5,1.9c0.6-0.2,1.1-0.5,1.7-0.9c0.3,0.3,0.6,0.6,1,1c-1.3,1.5-3.8,2-5.4,1c-0.8-0.5-1.3-1.2-1.4-2.1
	c-0.1-1.1,0-2.2-0.1-3.3C53.7,11.9,53.7,11.7,53.7,11.5z"/>
<path class="st0" d="M18.4,12.2c-0.6-1.3-1.7-1.1-2.7-0.6c-0.9,0.4-1.3,1.2-1.4,2.1c-0.1,0.8,0,1.6,0,2.4c0.5,0,0.9,0,1.4,0
	c0.4,0,0.9,0,1.4,0c0,0.5,0,1,0,1.5c-2,0-4,0-6.1,0c0-0.5,0-1,0-1.5c0.6,0,1.1,0,1.7,0c0-1.6,0-3.1,0-4.7c-0.4,0-0.9,0-1.3,0
	c0-0.5,0-1,0-1.6c1,0,2,0,3,0c0,0.4,0,0.7,0,1.2c1.1-1.3,2.3-1.8,3.8-1.4c1,0.3,1.6,0.9,1.8,2C19.4,11.9,18.9,12,18.4,12.2z"/>
<path class="st0" d="M65.5,10c0,0.4,0,0.7,0,1.2c1.1-1.3,2.4-1.8,4-1.3c0.9,0.3,1.4,1,1.6,1.9c-0.5,0.1-1,0.3-1.4,0.4
	c-0.1,0-0.2-0.1-0.2-0.1c-0.7-0.9-1.5-1.1-2.5-0.5c-1,0.5-1.4,1.4-1.5,2.4c-0.1,0.7,0,1.4,0,2.2c0.9,0,1.8,0,2.8,0c0,0.5,0,1,0,1.6
	c-2,0-4,0-6.1,0c0-0.5,0-1,0-1.5c0.6,0,1.1,0,1.7,0c0-1.6,0-3.1,0-4.7c-0.4,0-0.9,0-1.3,0c0-0.5,0-1,0-1.5C63.5,10,64.5,10,65.5,10z
	"/>
<path class="st0" d="M36.6,9.9c0,2.1,0,4.1,0,6.2c1,0,2,0,3,0c0,0.5,0,1,0,1.5c-2.7,0-5.3,0-8,0c0-0.5,0-1,0-1.5c1.1,0,2.2,0,3.3,0
	c0-1.6,0-3.1,0-4.7c-0.8,0-1.6,0-2.5,0c0-0.5,0-1,0-1.5C33.8,9.9,35.1,9.9,36.6,9.9z"/>
<path class="st0" d="M36.5,6c0,0.8,0,1.5,0,2.3c-0.6,0-1.2,0-1.8,0c0-0.8,0-1.5,0-2.3C35.4,6,35.9,6,36.5,6z"/>
<g>
	<path class="st1" d="M111.1,0h28c2.2,0,4,1.8,4,4v16c0,2.2-1.8,4-4,4h-28c-2.2,0-4-1.8-4-4V4C107.1,1.8,108.8,0,111.1,0z"/>
</g>
<path class="st2" d="M113.5,8.5l-3.4,7.2h4l0.5-1.2h1.1l0.5,1.2h4.4v-0.9l0.4,0.9h2.3l0.4-0.9v0.9h9.2l1.1-1.1l1.1,1.1l4.7,0
	l-3.4-3.6l3.4-3.6h-4.7l-1.1,1.1l-1-1.1h-10l-0.9,1.9l-0.9-1.9h-4v0.9L117,8.5H113.5z M114.3,9.5h2l2.2,4.9V9.5h2.2l1.7,3.5l1.6-3.5
	h2.1v5.2h-1.3l0-4.1l-1.9,4.1h-1.2l-1.9-4.1v4.1h-2.7l-0.5-1.2h-2.7l-0.5,1.2h-1.4L114.3,9.5z M132.6,9.5h-5.3v5.2h5.2l1.7-1.7
	l1.6,1.7h1.7l-2.5-2.6l2.5-2.6h-1.6l-1.7,1.7L132.6,9.5z M115.2,10.4l-0.9,2.1h1.8L115.2,10.4z M128.6,11.6v-0.9v0h3.3l1.4,1.5
	l-1.5,1.5h-3.2v-1h2.9v-1.1H128.6z"/>
<g>
	<path class="st0" d="M155.1,0h28c2.2,0,4,1.8,4,4v16c0,2.2-1.8,4-4,4h-28c-2.2,0-4-1.8-4-4V4C151.1,1.8,152.8,0,155.1,0z"/>
</g>
<path class="st3" d="M162,16.3h-2.2l-1.6-6.1c-0.1-0.3-0.2-0.5-0.5-0.6c-0.6-0.3-1.3-0.5-2-0.6V8.7h3.5c0.5,0,0.8,0.4,0.9,0.8
	l0.8,4.4l2.2-5.1h2.1L162,16.3z M166.5,16.3h-2.1l1.7-7.6h2.1L166.5,16.3z M170.8,10.8c0.1-0.4,0.4-0.6,0.8-0.6
	c0.7-0.1,1.4,0.1,2,0.3l0.4-1.6c-0.6-0.2-1.3-0.4-1.9-0.4c-2,0-3.5,1.1-3.5,2.5c0,1.1,1,1.7,1.8,2c0.8,0.3,1.1,0.6,1,0.9
	c0,0.5-0.6,0.8-1.2,0.8c-0.7,0-1.5-0.2-2.1-0.5l-0.4,1.6c0.7,0.3,1.5,0.4,2.2,0.4c2.2,0.1,3.6-1,3.6-2.6
	C173.7,11.8,170.8,11.7,170.8,10.8z M180.9,16.3l-1.6-7.6h-1.8c-0.4,0-0.7,0.2-0.8,0.6l-3,7h2.1l0.4-1.1h2.6l0.2,1.1H180.9z
	 M177.8,10.7l0.6,2.9h-1.7L177.8,10.7z"/>
<g>
	<path class="st0" d="M199.1,0h28c2.2,0,4,1.8,4,4v16c0,2.2-1.8,4-4,4h-28c-2.2,0-4-1.8-4-4V4C195.1,1.8,196.8,0,199.1,0z"/>
</g>
<path class="st4" d="M213.6,16.9c1.3-1.3,2.1-3,2.1-4.9s-0.8-3.6-2.1-4.9c1.3-1.3,3.1-2.1,5.1-2.1c4,0,7.2,3.1,7.2,7s-3.2,7-7.2,7
	C216.7,19,214.9,18.2,213.6,16.9z"/>
<path class="st5" d="M213.6,17c1.3-1.3,2.1-3.1,2.1-5s-0.8-3.7-2.1-5c-1.3,1.3-2.1,3.1-2.1,5S212.3,15.7,213.6,17z"/>
<path class="st6" d="M213.6,16.9c-1.3,1.3-3.1,2.1-5.1,2.1c-4,0-7.2-3.1-7.2-7s3.2-7,7.2-7c2,0,3.8,0.8,5.1,2.1
	c-1.3,1.3-2.1,3-2.1,4.9S212.3,15.6,213.6,16.9z"/>
<path class="st0" d="M243.1,0h28c2.2,0,4,1.8,4,4v16c0,2.2-1.8,4-4,4h-28c-2.2,0-4-1.8-4-4V4C239.1,1.8,240.8,0,243.1,0z"/>
<path class="st7" d="M259.4,11.7c0,3.7-3.1,6.7-7,6.7c-3.9,0-7-3-7-6.7c0-3.7,3.1-6.7,7-6.7C256.3,5,259.4,8,259.4,11.7z"/>
<path class="st8" d="M268.6,11.7c0,3.7-3.1,6.7-7,6.7c-3.9,0-7-3-7-6.7c0-3.7,3.1-6.7,7-6.7C265.4,5,268.6,8,268.6,11.7z"/>
<path class="st9" d="M257,16.8c-1.5-1.2-2.5-3.1-2.5-5.1c0-2,1-3.9,2.5-5.1c1.5,1.2,2.5,3.1,2.5,5.1C259.4,13.7,258.5,15.6,257,16.8
	z"/>
</svg>
